<mxfile host="app.diagrams.net" agent="Mozilla/5.0 (Windows NT 10.0; Win64; x64) AppleWebKit/537.36 (KHTML, like Gecko) Chrome/136.0.0.0 Safari/537.36" version="27.0.9">
  <diagram name="Page-1" id="1E9M35bnTH33wsnyo-Ls">
    <mxGraphModel dx="1603" dy="2104" grid="0" gridSize="10" guides="1" tooltips="1" connect="1" arrows="1" fold="1" page="1" pageScale="1" pageWidth="827" pageHeight="1169" math="0" shadow="0">
      <root>
        <mxCell id="0" />
        <mxCell id="1" parent="0" />
        <mxCell id="aeJqdDFBX5K6zPL4mIxV-1" value="Tour" style="shape=table;startSize=30;container=1;collapsible=0;childLayout=tableLayout;" vertex="1" parent="1">
          <mxGeometry x="354" y="142" width="60" height="270" as="geometry" />
        </mxCell>
        <mxCell id="aeJqdDFBX5K6zPL4mIxV-2" value="" style="shape=tableRow;horizontal=0;startSize=0;swimlaneHead=0;swimlaneBody=0;strokeColor=inherit;top=0;left=0;bottom=0;right=0;collapsible=0;dropTarget=0;fillColor=none;points=[[0,0.5],[1,0.5]];portConstraint=eastwest;" vertex="1" parent="aeJqdDFBX5K6zPL4mIxV-1">
          <mxGeometry y="30" width="60" height="40" as="geometry" />
        </mxCell>
        <mxCell id="aeJqdDFBX5K6zPL4mIxV-3" value="ID" style="shape=partialRectangle;html=1;whiteSpace=wrap;connectable=0;strokeColor=inherit;overflow=hidden;fillColor=none;top=0;left=0;bottom=0;right=0;pointerEvents=1;" vertex="1" parent="aeJqdDFBX5K6zPL4mIxV-2">
          <mxGeometry width="60" height="40" as="geometry">
            <mxRectangle width="60" height="40" as="alternateBounds" />
          </mxGeometry>
        </mxCell>
        <mxCell id="aeJqdDFBX5K6zPL4mIxV-5" value="" style="shape=tableRow;horizontal=0;startSize=0;swimlaneHead=0;swimlaneBody=0;strokeColor=inherit;top=0;left=0;bottom=0;right=0;collapsible=0;dropTarget=0;fillColor=none;points=[[0,0.5],[1,0.5]];portConstraint=eastwest;" vertex="1" parent="aeJqdDFBX5K6zPL4mIxV-1">
          <mxGeometry y="70" width="60" height="40" as="geometry" />
        </mxCell>
        <mxCell id="aeJqdDFBX5K6zPL4mIxV-6" value="Name" style="shape=partialRectangle;html=1;whiteSpace=wrap;connectable=0;strokeColor=inherit;overflow=hidden;fillColor=none;top=0;left=0;bottom=0;right=0;pointerEvents=1;" vertex="1" parent="aeJqdDFBX5K6zPL4mIxV-5">
          <mxGeometry width="60" height="40" as="geometry">
            <mxRectangle width="60" height="40" as="alternateBounds" />
          </mxGeometry>
        </mxCell>
        <mxCell id="aeJqdDFBX5K6zPL4mIxV-8" value="" style="shape=tableRow;horizontal=0;startSize=0;swimlaneHead=0;swimlaneBody=0;strokeColor=inherit;top=0;left=0;bottom=0;right=0;collapsible=0;dropTarget=0;fillColor=none;points=[[0,0.5],[1,0.5]];portConstraint=eastwest;" vertex="1" parent="aeJqdDFBX5K6zPL4mIxV-1">
          <mxGeometry y="110" width="60" height="40" as="geometry" />
        </mxCell>
        <mxCell id="aeJqdDFBX5K6zPL4mIxV-9" value="StartDate" style="shape=partialRectangle;html=1;whiteSpace=wrap;connectable=0;strokeColor=inherit;overflow=hidden;fillColor=none;top=0;left=0;bottom=0;right=0;pointerEvents=1;" vertex="1" parent="aeJqdDFBX5K6zPL4mIxV-8">
          <mxGeometry width="60" height="40" as="geometry">
            <mxRectangle width="60" height="40" as="alternateBounds" />
          </mxGeometry>
        </mxCell>
        <mxCell id="aeJqdDFBX5K6zPL4mIxV-11" value="" style="shape=tableRow;horizontal=0;startSize=0;swimlaneHead=0;swimlaneBody=0;strokeColor=inherit;top=0;left=0;bottom=0;right=0;collapsible=0;dropTarget=0;fillColor=none;points=[[0,0.5],[1,0.5]];portConstraint=eastwest;" vertex="1" parent="aeJqdDFBX5K6zPL4mIxV-1">
          <mxGeometry y="150" width="60" height="40" as="geometry" />
        </mxCell>
        <mxCell id="aeJqdDFBX5K6zPL4mIxV-12" value="EndDate" style="shape=partialRectangle;html=1;whiteSpace=wrap;connectable=0;strokeColor=inherit;overflow=hidden;fillColor=none;top=0;left=0;bottom=0;right=0;pointerEvents=1;" vertex="1" parent="aeJqdDFBX5K6zPL4mIxV-11">
          <mxGeometry width="60" height="40" as="geometry">
            <mxRectangle width="60" height="40" as="alternateBounds" />
          </mxGeometry>
        </mxCell>
        <mxCell id="aeJqdDFBX5K6zPL4mIxV-14" value="" style="shape=tableRow;horizontal=0;startSize=0;swimlaneHead=0;swimlaneBody=0;strokeColor=inherit;top=0;left=0;bottom=0;right=0;collapsible=0;dropTarget=0;fillColor=none;points=[[0,0.5],[1,0.5]];portConstraint=eastwest;" vertex="1" parent="aeJqdDFBX5K6zPL4mIxV-1">
          <mxGeometry y="190" width="60" height="40" as="geometry" />
        </mxCell>
        <mxCell id="aeJqdDFBX5K6zPL4mIxV-15" value="Price" style="shape=partialRectangle;html=1;whiteSpace=wrap;connectable=0;strokeColor=inherit;overflow=hidden;fillColor=none;top=0;left=0;bottom=0;right=0;pointerEvents=1;" vertex="1" parent="aeJqdDFBX5K6zPL4mIxV-14">
          <mxGeometry width="60" height="40" as="geometry">
            <mxRectangle width="60" height="40" as="alternateBounds" />
          </mxGeometry>
        </mxCell>
        <mxCell id="aeJqdDFBX5K6zPL4mIxV-17" value="" style="shape=tableRow;horizontal=0;startSize=0;swimlaneHead=0;swimlaneBody=0;strokeColor=inherit;top=0;left=0;bottom=0;right=0;collapsible=0;dropTarget=0;fillColor=none;points=[[0,0.5],[1,0.5]];portConstraint=eastwest;" vertex="1" parent="aeJqdDFBX5K6zPL4mIxV-1">
          <mxGeometry y="230" width="60" height="40" as="geometry" />
        </mxCell>
        <mxCell id="aeJqdDFBX5K6zPL4mIxV-18" value="BusID(FK)" style="shape=partialRectangle;html=1;whiteSpace=wrap;connectable=0;strokeColor=inherit;overflow=hidden;fillColor=none;top=0;left=0;bottom=0;right=0;pointerEvents=1;" vertex="1" parent="aeJqdDFBX5K6zPL4mIxV-17">
          <mxGeometry width="60" height="40" as="geometry">
            <mxRectangle width="60" height="40" as="alternateBounds" />
          </mxGeometry>
        </mxCell>
        <mxCell id="aeJqdDFBX5K6zPL4mIxV-26" value="TourApplication" style="shape=table;startSize=30;container=1;collapsible=0;childLayout=tableLayout;" vertex="1" parent="1">
          <mxGeometry x="562" y="87" width="72.33341471354163" height="230" as="geometry" />
        </mxCell>
        <mxCell id="aeJqdDFBX5K6zPL4mIxV-27" value="" style="shape=tableRow;horizontal=0;startSize=0;swimlaneHead=0;swimlaneBody=0;strokeColor=inherit;top=0;left=0;bottom=0;right=0;collapsible=0;dropTarget=0;fillColor=none;points=[[0,0.5],[1,0.5]];portConstraint=eastwest;" vertex="1" parent="aeJqdDFBX5K6zPL4mIxV-26">
          <mxGeometry y="30" width="72.33341471354163" height="40" as="geometry" />
        </mxCell>
        <mxCell id="aeJqdDFBX5K6zPL4mIxV-28" value="ID" style="shape=partialRectangle;html=1;whiteSpace=wrap;connectable=0;strokeColor=inherit;overflow=hidden;fillColor=none;top=0;left=0;bottom=0;right=0;pointerEvents=1;" vertex="1" parent="aeJqdDFBX5K6zPL4mIxV-27">
          <mxGeometry width="72" height="40" as="geometry">
            <mxRectangle width="72" height="40" as="alternateBounds" />
          </mxGeometry>
        </mxCell>
        <mxCell id="aeJqdDFBX5K6zPL4mIxV-30" value="" style="shape=tableRow;horizontal=0;startSize=0;swimlaneHead=0;swimlaneBody=0;strokeColor=inherit;top=0;left=0;bottom=0;right=0;collapsible=0;dropTarget=0;fillColor=none;points=[[0,0.5],[1,0.5]];portConstraint=eastwest;" vertex="1" parent="aeJqdDFBX5K6zPL4mIxV-26">
          <mxGeometry y="70" width="72.33341471354163" height="40" as="geometry" />
        </mxCell>
        <mxCell id="aeJqdDFBX5K6zPL4mIxV-31" value="UserID(FK)" style="shape=partialRectangle;html=1;whiteSpace=wrap;connectable=0;strokeColor=inherit;overflow=hidden;fillColor=none;top=0;left=0;bottom=0;right=0;pointerEvents=1;" vertex="1" parent="aeJqdDFBX5K6zPL4mIxV-30">
          <mxGeometry width="72" height="40" as="geometry">
            <mxRectangle width="72" height="40" as="alternateBounds" />
          </mxGeometry>
        </mxCell>
        <mxCell id="aeJqdDFBX5K6zPL4mIxV-33" value="" style="shape=tableRow;horizontal=0;startSize=0;swimlaneHead=0;swimlaneBody=0;strokeColor=inherit;top=0;left=0;bottom=0;right=0;collapsible=0;dropTarget=0;fillColor=none;points=[[0,0.5],[1,0.5]];portConstraint=eastwest;" vertex="1" parent="aeJqdDFBX5K6zPL4mIxV-26">
          <mxGeometry y="110" width="72.33341471354163" height="40" as="geometry" />
        </mxCell>
        <mxCell id="aeJqdDFBX5K6zPL4mIxV-34" value="TourID(FK)" style="shape=partialRectangle;html=1;whiteSpace=wrap;connectable=0;strokeColor=inherit;overflow=hidden;fillColor=none;top=0;left=0;bottom=0;right=0;pointerEvents=1;" vertex="1" parent="aeJqdDFBX5K6zPL4mIxV-33">
          <mxGeometry width="72" height="40" as="geometry">
            <mxRectangle width="72" height="40" as="alternateBounds" />
          </mxGeometry>
        </mxCell>
        <mxCell id="aeJqdDFBX5K6zPL4mIxV-36" value="" style="shape=tableRow;horizontal=0;startSize=0;swimlaneHead=0;swimlaneBody=0;strokeColor=inherit;top=0;left=0;bottom=0;right=0;collapsible=0;dropTarget=0;fillColor=none;points=[[0,0.5],[1,0.5]];portConstraint=eastwest;" vertex="1" parent="aeJqdDFBX5K6zPL4mIxV-26">
          <mxGeometry y="150" width="72.33341471354163" height="40" as="geometry" />
        </mxCell>
        <mxCell id="aeJqdDFBX5K6zPL4mIxV-37" value="RequestDate" style="shape=partialRectangle;html=1;whiteSpace=wrap;connectable=0;strokeColor=inherit;overflow=hidden;fillColor=none;top=0;left=0;bottom=0;right=0;pointerEvents=1;" vertex="1" parent="aeJqdDFBX5K6zPL4mIxV-36">
          <mxGeometry width="72" height="40" as="geometry">
            <mxRectangle width="72" height="40" as="alternateBounds" />
          </mxGeometry>
        </mxCell>
        <mxCell id="aeJqdDFBX5K6zPL4mIxV-39" value="" style="shape=tableRow;horizontal=0;startSize=0;swimlaneHead=0;swimlaneBody=0;strokeColor=inherit;top=0;left=0;bottom=0;right=0;collapsible=0;dropTarget=0;fillColor=none;points=[[0,0.5],[1,0.5]];portConstraint=eastwest;" vertex="1" parent="aeJqdDFBX5K6zPL4mIxV-26">
          <mxGeometry y="190" width="72.33341471354163" height="40" as="geometry" />
        </mxCell>
        <mxCell id="aeJqdDFBX5K6zPL4mIxV-40" value="Status" style="shape=partialRectangle;html=1;whiteSpace=wrap;connectable=0;strokeColor=inherit;overflow=hidden;fillColor=none;top=0;left=0;bottom=0;right=0;pointerEvents=1;" vertex="1" parent="aeJqdDFBX5K6zPL4mIxV-39">
          <mxGeometry width="72" height="40" as="geometry">
            <mxRectangle width="72" height="40" as="alternateBounds" />
          </mxGeometry>
        </mxCell>
        <mxCell id="aeJqdDFBX5K6zPL4mIxV-42" value="Voucher" style="shape=table;startSize=30;container=1;collapsible=0;childLayout=tableLayout;" vertex="1" parent="1">
          <mxGeometry x="819" y="-112" width="119.00008138020826" height="230" as="geometry" />
        </mxCell>
        <mxCell id="aeJqdDFBX5K6zPL4mIxV-43" value="" style="shape=tableRow;horizontal=0;startSize=0;swimlaneHead=0;swimlaneBody=0;strokeColor=inherit;top=0;left=0;bottom=0;right=0;collapsible=0;dropTarget=0;fillColor=none;points=[[0,0.5],[1,0.5]];portConstraint=eastwest;" vertex="1" parent="aeJqdDFBX5K6zPL4mIxV-42">
          <mxGeometry y="30" width="119.00008138020826" height="40" as="geometry" />
        </mxCell>
        <mxCell id="aeJqdDFBX5K6zPL4mIxV-44" value="ID" style="shape=partialRectangle;html=1;whiteSpace=wrap;connectable=0;strokeColor=inherit;overflow=hidden;fillColor=none;top=0;left=0;bottom=0;right=0;pointerEvents=1;" vertex="1" parent="aeJqdDFBX5K6zPL4mIxV-43">
          <mxGeometry width="119" height="40" as="geometry">
            <mxRectangle width="119" height="40" as="alternateBounds" />
          </mxGeometry>
        </mxCell>
        <mxCell id="aeJqdDFBX5K6zPL4mIxV-46" value="" style="shape=tableRow;horizontal=0;startSize=0;swimlaneHead=0;swimlaneBody=0;strokeColor=inherit;top=0;left=0;bottom=0;right=0;collapsible=0;dropTarget=0;fillColor=none;points=[[0,0.5],[1,0.5]];portConstraint=eastwest;" vertex="1" parent="aeJqdDFBX5K6zPL4mIxV-42">
          <mxGeometry y="70" width="119.00008138020826" height="40" as="geometry" />
        </mxCell>
        <mxCell id="aeJqdDFBX5K6zPL4mIxV-47" value="TourApplicationID(FK)" style="shape=partialRectangle;html=1;whiteSpace=wrap;connectable=0;strokeColor=inherit;overflow=hidden;fillColor=none;top=0;left=0;bottom=0;right=0;pointerEvents=1;" vertex="1" parent="aeJqdDFBX5K6zPL4mIxV-46">
          <mxGeometry width="119" height="40" as="geometry">
            <mxRectangle width="119" height="40" as="alternateBounds" />
          </mxGeometry>
        </mxCell>
        <mxCell id="aeJqdDFBX5K6zPL4mIxV-49" value="" style="shape=tableRow;horizontal=0;startSize=0;swimlaneHead=0;swimlaneBody=0;strokeColor=inherit;top=0;left=0;bottom=0;right=0;collapsible=0;dropTarget=0;fillColor=none;points=[[0,0.5],[1,0.5]];portConstraint=eastwest;" vertex="1" parent="aeJqdDFBX5K6zPL4mIxV-42">
          <mxGeometry y="110" width="119.00008138020826" height="40" as="geometry" />
        </mxCell>
        <mxCell id="aeJqdDFBX5K6zPL4mIxV-50" value="Code" style="shape=partialRectangle;html=1;whiteSpace=wrap;connectable=0;strokeColor=inherit;overflow=hidden;fillColor=none;top=0;left=0;bottom=0;right=0;pointerEvents=1;" vertex="1" parent="aeJqdDFBX5K6zPL4mIxV-49">
          <mxGeometry width="119" height="40" as="geometry">
            <mxRectangle width="119" height="40" as="alternateBounds" />
          </mxGeometry>
        </mxCell>
        <mxCell id="aeJqdDFBX5K6zPL4mIxV-52" value="" style="shape=tableRow;horizontal=0;startSize=0;swimlaneHead=0;swimlaneBody=0;strokeColor=inherit;top=0;left=0;bottom=0;right=0;collapsible=0;dropTarget=0;fillColor=none;points=[[0,0.5],[1,0.5]];portConstraint=eastwest;" vertex="1" parent="aeJqdDFBX5K6zPL4mIxV-42">
          <mxGeometry y="150" width="119.00008138020826" height="40" as="geometry" />
        </mxCell>
        <mxCell id="aeJqdDFBX5K6zPL4mIxV-53" value="IssueDate" style="shape=partialRectangle;html=1;whiteSpace=wrap;connectable=0;strokeColor=inherit;overflow=hidden;fillColor=none;top=0;left=0;bottom=0;right=0;pointerEvents=1;" vertex="1" parent="aeJqdDFBX5K6zPL4mIxV-52">
          <mxGeometry width="119" height="40" as="geometry">
            <mxRectangle width="119" height="40" as="alternateBounds" />
          </mxGeometry>
        </mxCell>
        <mxCell id="aeJqdDFBX5K6zPL4mIxV-55" value="" style="shape=tableRow;horizontal=0;startSize=0;swimlaneHead=0;swimlaneBody=0;strokeColor=inherit;top=0;left=0;bottom=0;right=0;collapsible=0;dropTarget=0;fillColor=none;points=[[0,0.5],[1,0.5]];portConstraint=eastwest;" vertex="1" parent="aeJqdDFBX5K6zPL4mIxV-42">
          <mxGeometry y="190" width="119.00008138020826" height="40" as="geometry" />
        </mxCell>
        <mxCell id="aeJqdDFBX5K6zPL4mIxV-56" value="IsUsed" style="shape=partialRectangle;html=1;whiteSpace=wrap;connectable=0;strokeColor=inherit;overflow=hidden;fillColor=none;top=0;left=0;bottom=0;right=0;pointerEvents=1;" vertex="1" parent="aeJqdDFBX5K6zPL4mIxV-55">
          <mxGeometry width="119" height="40" as="geometry">
            <mxRectangle width="119" height="40" as="alternateBounds" />
          </mxGeometry>
        </mxCell>
        <mxCell id="aeJqdDFBX5K6zPL4mIxV-64" value="Country" style="shape=table;startSize=30;container=1;collapsible=0;childLayout=tableLayout;" vertex="1" parent="1">
          <mxGeometry x="1153" y="563" width="141.214285714286" height="150.0833594912575" as="geometry" />
        </mxCell>
        <mxCell id="aeJqdDFBX5K6zPL4mIxV-65" value="" style="shape=tableRow;horizontal=0;startSize=0;swimlaneHead=0;swimlaneBody=0;strokeColor=inherit;top=0;left=0;bottom=0;right=0;collapsible=0;dropTarget=0;fillColor=none;points=[[0,0.5],[1,0.5]];portConstraint=eastwest;" vertex="1" parent="aeJqdDFBX5K6zPL4mIxV-64">
          <mxGeometry y="30" width="141.214285714286" height="40" as="geometry" />
        </mxCell>
        <mxCell id="aeJqdDFBX5K6zPL4mIxV-66" value="ID" style="shape=partialRectangle;html=1;whiteSpace=wrap;connectable=0;strokeColor=inherit;overflow=hidden;fillColor=none;top=0;left=0;bottom=0;right=0;pointerEvents=1;" vertex="1" parent="aeJqdDFBX5K6zPL4mIxV-65">
          <mxGeometry width="75" height="40" as="geometry">
            <mxRectangle width="75" height="40" as="alternateBounds" />
          </mxGeometry>
        </mxCell>
        <mxCell id="aeJqdDFBX5K6zPL4mIxV-67" value="" style="shape=partialRectangle;html=1;whiteSpace=wrap;connectable=0;strokeColor=inherit;overflow=hidden;fillColor=none;top=0;left=0;bottom=0;right=0;pointerEvents=1;" vertex="1" parent="aeJqdDFBX5K6zPL4mIxV-65">
          <mxGeometry x="75" width="66" height="40" as="geometry">
            <mxRectangle width="66" height="40" as="alternateBounds" />
          </mxGeometry>
        </mxCell>
        <mxCell id="aeJqdDFBX5K6zPL4mIxV-68" value="" style="shape=tableRow;horizontal=0;startSize=0;swimlaneHead=0;swimlaneBody=0;strokeColor=inherit;top=0;left=0;bottom=0;right=0;collapsible=0;dropTarget=0;fillColor=none;points=[[0,0.5],[1,0.5]];portConstraint=eastwest;" vertex="1" parent="aeJqdDFBX5K6zPL4mIxV-64">
          <mxGeometry y="70" width="141.214285714286" height="40" as="geometry" />
        </mxCell>
        <mxCell id="aeJqdDFBX5K6zPL4mIxV-69" value="Name" style="shape=partialRectangle;html=1;whiteSpace=wrap;connectable=0;strokeColor=inherit;overflow=hidden;fillColor=none;top=0;left=0;bottom=0;right=0;pointerEvents=1;" vertex="1" parent="aeJqdDFBX5K6zPL4mIxV-68">
          <mxGeometry width="75" height="40" as="geometry">
            <mxRectangle width="75" height="40" as="alternateBounds" />
          </mxGeometry>
        </mxCell>
        <mxCell id="aeJqdDFBX5K6zPL4mIxV-70" value="" style="shape=partialRectangle;html=1;whiteSpace=wrap;connectable=0;strokeColor=inherit;overflow=hidden;fillColor=none;top=0;left=0;bottom=0;right=0;pointerEvents=1;" vertex="1" parent="aeJqdDFBX5K6zPL4mIxV-68">
          <mxGeometry x="75" width="66" height="40" as="geometry">
            <mxRectangle width="66" height="40" as="alternateBounds" />
          </mxGeometry>
        </mxCell>
        <mxCell id="aeJqdDFBX5K6zPL4mIxV-71" value="" style="shape=tableRow;horizontal=0;startSize=0;swimlaneHead=0;swimlaneBody=0;strokeColor=inherit;top=0;left=0;bottom=0;right=0;collapsible=0;dropTarget=0;fillColor=none;points=[[0,0.5],[1,0.5]];portConstraint=eastwest;" vertex="1" parent="aeJqdDFBX5K6zPL4mIxV-64">
          <mxGeometry y="110" width="141.214285714286" height="40" as="geometry" />
        </mxCell>
        <mxCell id="aeJqdDFBX5K6zPL4mIxV-72" value="Description" style="shape=partialRectangle;html=1;whiteSpace=wrap;connectable=0;strokeColor=inherit;overflow=hidden;fillColor=none;top=0;left=0;bottom=0;right=0;pointerEvents=1;" vertex="1" parent="aeJqdDFBX5K6zPL4mIxV-71">
          <mxGeometry width="75" height="40" as="geometry">
            <mxRectangle width="75" height="40" as="alternateBounds" />
          </mxGeometry>
        </mxCell>
        <mxCell id="aeJqdDFBX5K6zPL4mIxV-73" value="" style="shape=partialRectangle;html=1;whiteSpace=wrap;connectable=0;strokeColor=inherit;overflow=hidden;fillColor=none;top=0;left=0;bottom=0;right=0;pointerEvents=1;" vertex="1" parent="aeJqdDFBX5K6zPL4mIxV-71">
          <mxGeometry x="75" width="66" height="40" as="geometry">
            <mxRectangle width="66" height="40" as="alternateBounds" />
          </mxGeometry>
        </mxCell>
        <mxCell id="aeJqdDFBX5K6zPL4mIxV-83" value="City" style="shape=table;startSize=30;container=1;collapsible=0;childLayout=tableLayout;" vertex="1" parent="1">
          <mxGeometry x="955" y="483" width="137.06673177083326" height="150" as="geometry" />
        </mxCell>
        <mxCell id="aeJqdDFBX5K6zPL4mIxV-84" value="" style="shape=tableRow;horizontal=0;startSize=0;swimlaneHead=0;swimlaneBody=0;strokeColor=inherit;top=0;left=0;bottom=0;right=0;collapsible=0;dropTarget=0;fillColor=none;points=[[0,0.5],[1,0.5]];portConstraint=eastwest;" vertex="1" parent="aeJqdDFBX5K6zPL4mIxV-83">
          <mxGeometry y="30" width="137.06673177083326" height="40" as="geometry" />
        </mxCell>
        <mxCell id="aeJqdDFBX5K6zPL4mIxV-85" value="ID" style="shape=partialRectangle;html=1;whiteSpace=wrap;connectable=0;strokeColor=inherit;overflow=hidden;fillColor=none;top=0;left=0;bottom=0;right=0;pointerEvents=1;" vertex="1" parent="aeJqdDFBX5K6zPL4mIxV-84">
          <mxGeometry width="85" height="40" as="geometry">
            <mxRectangle width="85" height="40" as="alternateBounds" />
          </mxGeometry>
        </mxCell>
        <mxCell id="aeJqdDFBX5K6zPL4mIxV-86" value="" style="shape=partialRectangle;html=1;whiteSpace=wrap;connectable=0;strokeColor=inherit;overflow=hidden;fillColor=none;top=0;left=0;bottom=0;right=0;pointerEvents=1;" vertex="1" parent="aeJqdDFBX5K6zPL4mIxV-84">
          <mxGeometry x="85" width="52" height="40" as="geometry">
            <mxRectangle width="52" height="40" as="alternateBounds" />
          </mxGeometry>
        </mxCell>
        <mxCell id="aeJqdDFBX5K6zPL4mIxV-87" value="" style="shape=tableRow;horizontal=0;startSize=0;swimlaneHead=0;swimlaneBody=0;strokeColor=inherit;top=0;left=0;bottom=0;right=0;collapsible=0;dropTarget=0;fillColor=none;points=[[0,0.5],[1,0.5]];portConstraint=eastwest;" vertex="1" parent="aeJqdDFBX5K6zPL4mIxV-83">
          <mxGeometry y="70" width="137.06673177083326" height="40" as="geometry" />
        </mxCell>
        <mxCell id="aeJqdDFBX5K6zPL4mIxV-88" value="Name" style="shape=partialRectangle;html=1;whiteSpace=wrap;connectable=0;strokeColor=inherit;overflow=hidden;fillColor=none;top=0;left=0;bottom=0;right=0;pointerEvents=1;" vertex="1" parent="aeJqdDFBX5K6zPL4mIxV-87">
          <mxGeometry width="85" height="40" as="geometry">
            <mxRectangle width="85" height="40" as="alternateBounds" />
          </mxGeometry>
        </mxCell>
        <mxCell id="aeJqdDFBX5K6zPL4mIxV-89" value="" style="shape=partialRectangle;html=1;whiteSpace=wrap;connectable=0;strokeColor=inherit;overflow=hidden;fillColor=none;top=0;left=0;bottom=0;right=0;pointerEvents=1;" vertex="1" parent="aeJqdDFBX5K6zPL4mIxV-87">
          <mxGeometry x="85" width="52" height="40" as="geometry">
            <mxRectangle width="52" height="40" as="alternateBounds" />
          </mxGeometry>
        </mxCell>
        <mxCell id="aeJqdDFBX5K6zPL4mIxV-90" value="" style="shape=tableRow;horizontal=0;startSize=0;swimlaneHead=0;swimlaneBody=0;strokeColor=inherit;top=0;left=0;bottom=0;right=0;collapsible=0;dropTarget=0;fillColor=none;points=[[0,0.5],[1,0.5]];portConstraint=eastwest;" vertex="1" parent="aeJqdDFBX5K6zPL4mIxV-83">
          <mxGeometry y="110" width="137.06673177083326" height="40" as="geometry" />
        </mxCell>
        <mxCell id="aeJqdDFBX5K6zPL4mIxV-91" value="CountryID(FK)" style="shape=partialRectangle;html=1;whiteSpace=wrap;connectable=0;strokeColor=inherit;overflow=hidden;fillColor=none;top=0;left=0;bottom=0;right=0;pointerEvents=1;" vertex="1" parent="aeJqdDFBX5K6zPL4mIxV-90">
          <mxGeometry width="85" height="40" as="geometry">
            <mxRectangle width="85" height="40" as="alternateBounds" />
          </mxGeometry>
        </mxCell>
        <mxCell id="aeJqdDFBX5K6zPL4mIxV-92" value="" style="shape=partialRectangle;html=1;whiteSpace=wrap;connectable=0;strokeColor=inherit;overflow=hidden;fillColor=none;top=0;left=0;bottom=0;right=0;pointerEvents=1;" vertex="1" parent="aeJqdDFBX5K6zPL4mIxV-90">
          <mxGeometry x="85" width="52" height="40" as="geometry">
            <mxRectangle width="52" height="40" as="alternateBounds" />
          </mxGeometry>
        </mxCell>
        <mxCell id="aeJqdDFBX5K6zPL4mIxV-96" value="Attraction" style="shape=table;startSize=30;container=1;collapsible=0;childLayout=tableLayout;" vertex="1" parent="1">
          <mxGeometry x="785" y="362" width="120" height="230" as="geometry" />
        </mxCell>
        <mxCell id="aeJqdDFBX5K6zPL4mIxV-97" value="" style="shape=tableRow;horizontal=0;startSize=0;swimlaneHead=0;swimlaneBody=0;strokeColor=inherit;top=0;left=0;bottom=0;right=0;collapsible=0;dropTarget=0;fillColor=none;points=[[0,0.5],[1,0.5]];portConstraint=eastwest;" vertex="1" parent="aeJqdDFBX5K6zPL4mIxV-96">
          <mxGeometry y="30" width="120" height="40" as="geometry" />
        </mxCell>
        <mxCell id="aeJqdDFBX5K6zPL4mIxV-98" value="ID" style="shape=partialRectangle;html=1;whiteSpace=wrap;connectable=0;strokeColor=inherit;overflow=hidden;fillColor=none;top=0;left=0;bottom=0;right=0;pointerEvents=1;" vertex="1" parent="aeJqdDFBX5K6zPL4mIxV-97">
          <mxGeometry width="71" height="40" as="geometry">
            <mxRectangle width="71" height="40" as="alternateBounds" />
          </mxGeometry>
        </mxCell>
        <mxCell id="aeJqdDFBX5K6zPL4mIxV-99" value="" style="shape=partialRectangle;html=1;whiteSpace=wrap;connectable=0;strokeColor=inherit;overflow=hidden;fillColor=none;top=0;left=0;bottom=0;right=0;pointerEvents=1;" vertex="1" parent="aeJqdDFBX5K6zPL4mIxV-97">
          <mxGeometry x="71" width="49" height="40" as="geometry">
            <mxRectangle width="49" height="40" as="alternateBounds" />
          </mxGeometry>
        </mxCell>
        <mxCell id="aeJqdDFBX5K6zPL4mIxV-100" value="" style="shape=tableRow;horizontal=0;startSize=0;swimlaneHead=0;swimlaneBody=0;strokeColor=inherit;top=0;left=0;bottom=0;right=0;collapsible=0;dropTarget=0;fillColor=none;points=[[0,0.5],[1,0.5]];portConstraint=eastwest;" vertex="1" parent="aeJqdDFBX5K6zPL4mIxV-96">
          <mxGeometry y="70" width="120" height="40" as="geometry" />
        </mxCell>
        <mxCell id="aeJqdDFBX5K6zPL4mIxV-101" value="Name" style="shape=partialRectangle;html=1;whiteSpace=wrap;connectable=0;strokeColor=inherit;overflow=hidden;fillColor=none;top=0;left=0;bottom=0;right=0;pointerEvents=1;" vertex="1" parent="aeJqdDFBX5K6zPL4mIxV-100">
          <mxGeometry width="71" height="40" as="geometry">
            <mxRectangle width="71" height="40" as="alternateBounds" />
          </mxGeometry>
        </mxCell>
        <mxCell id="aeJqdDFBX5K6zPL4mIxV-102" value="" style="shape=partialRectangle;html=1;whiteSpace=wrap;connectable=0;strokeColor=inherit;overflow=hidden;fillColor=none;top=0;left=0;bottom=0;right=0;pointerEvents=1;" vertex="1" parent="aeJqdDFBX5K6zPL4mIxV-100">
          <mxGeometry x="71" width="49" height="40" as="geometry">
            <mxRectangle width="49" height="40" as="alternateBounds" />
          </mxGeometry>
        </mxCell>
        <mxCell id="aeJqdDFBX5K6zPL4mIxV-103" value="" style="shape=tableRow;horizontal=0;startSize=0;swimlaneHead=0;swimlaneBody=0;strokeColor=inherit;top=0;left=0;bottom=0;right=0;collapsible=0;dropTarget=0;fillColor=none;points=[[0,0.5],[1,0.5]];portConstraint=eastwest;" vertex="1" parent="aeJqdDFBX5K6zPL4mIxV-96">
          <mxGeometry y="110" width="120" height="40" as="geometry" />
        </mxCell>
        <mxCell id="aeJqdDFBX5K6zPL4mIxV-104" value="Description" style="shape=partialRectangle;html=1;whiteSpace=wrap;connectable=0;strokeColor=inherit;overflow=hidden;fillColor=none;top=0;left=0;bottom=0;right=0;pointerEvents=1;" vertex="1" parent="aeJqdDFBX5K6zPL4mIxV-103">
          <mxGeometry width="71" height="40" as="geometry">
            <mxRectangle width="71" height="40" as="alternateBounds" />
          </mxGeometry>
        </mxCell>
        <mxCell id="aeJqdDFBX5K6zPL4mIxV-105" value="" style="shape=partialRectangle;html=1;whiteSpace=wrap;connectable=0;strokeColor=inherit;overflow=hidden;fillColor=none;top=0;left=0;bottom=0;right=0;pointerEvents=1;" vertex="1" parent="aeJqdDFBX5K6zPL4mIxV-103">
          <mxGeometry x="71" width="49" height="40" as="geometry">
            <mxRectangle width="49" height="40" as="alternateBounds" />
          </mxGeometry>
        </mxCell>
        <mxCell id="aeJqdDFBX5K6zPL4mIxV-106" value="" style="shape=tableRow;horizontal=0;startSize=0;swimlaneHead=0;swimlaneBody=0;strokeColor=inherit;top=0;left=0;bottom=0;right=0;collapsible=0;dropTarget=0;fillColor=none;points=[[0,0.5],[1,0.5]];portConstraint=eastwest;" vertex="1" parent="aeJqdDFBX5K6zPL4mIxV-96">
          <mxGeometry y="150" width="120" height="40" as="geometry" />
        </mxCell>
        <mxCell id="aeJqdDFBX5K6zPL4mIxV-107" value="CityID(FK)" style="shape=partialRectangle;html=1;whiteSpace=wrap;connectable=0;strokeColor=inherit;overflow=hidden;fillColor=none;top=0;left=0;bottom=0;right=0;pointerEvents=1;" vertex="1" parent="aeJqdDFBX5K6zPL4mIxV-106">
          <mxGeometry width="71" height="40" as="geometry">
            <mxRectangle width="71" height="40" as="alternateBounds" />
          </mxGeometry>
        </mxCell>
        <mxCell id="aeJqdDFBX5K6zPL4mIxV-108" value="" style="shape=partialRectangle;html=1;whiteSpace=wrap;connectable=0;strokeColor=inherit;overflow=hidden;fillColor=none;top=0;left=0;bottom=0;right=0;pointerEvents=1;" vertex="1" parent="aeJqdDFBX5K6zPL4mIxV-106">
          <mxGeometry x="71" width="49" height="40" as="geometry">
            <mxRectangle width="49" height="40" as="alternateBounds" />
          </mxGeometry>
        </mxCell>
        <mxCell id="aeJqdDFBX5K6zPL4mIxV-109" value="" style="shape=tableRow;horizontal=0;startSize=0;swimlaneHead=0;swimlaneBody=0;strokeColor=inherit;top=0;left=0;bottom=0;right=0;collapsible=0;dropTarget=0;fillColor=none;points=[[0,0.5],[1,0.5]];portConstraint=eastwest;" vertex="1" parent="aeJqdDFBX5K6zPL4mIxV-96">
          <mxGeometry y="190" width="120" height="40" as="geometry" />
        </mxCell>
        <mxCell id="aeJqdDFBX5K6zPL4mIxV-110" value="" style="shape=partialRectangle;html=1;whiteSpace=wrap;connectable=0;strokeColor=inherit;overflow=hidden;fillColor=none;top=0;left=0;bottom=0;right=0;pointerEvents=1;" vertex="1" parent="aeJqdDFBX5K6zPL4mIxV-109">
          <mxGeometry width="71" height="40" as="geometry">
            <mxRectangle width="71" height="40" as="alternateBounds" />
          </mxGeometry>
        </mxCell>
        <mxCell id="aeJqdDFBX5K6zPL4mIxV-111" value="" style="shape=partialRectangle;html=1;whiteSpace=wrap;connectable=0;strokeColor=inherit;overflow=hidden;fillColor=none;top=0;left=0;bottom=0;right=0;pointerEvents=1;" vertex="1" parent="aeJqdDFBX5K6zPL4mIxV-109">
          <mxGeometry x="71" width="49" height="40" as="geometry">
            <mxRectangle width="49" height="40" as="alternateBounds" />
          </mxGeometry>
        </mxCell>
        <mxCell id="aeJqdDFBX5K6zPL4mIxV-112" value="Bus" style="shape=table;startSize=30;container=1;collapsible=0;childLayout=tableLayout;fontStyle=0" vertex="1" parent="1">
          <mxGeometry x="95" y="181" width="78.1500244140625" height="230" as="geometry" />
        </mxCell>
        <mxCell id="aeJqdDFBX5K6zPL4mIxV-113" value="" style="shape=tableRow;horizontal=0;startSize=0;swimlaneHead=0;swimlaneBody=0;strokeColor=inherit;top=0;left=0;bottom=0;right=0;collapsible=0;dropTarget=0;fillColor=none;points=[[0,0.5],[1,0.5]];portConstraint=eastwest;" vertex="1" parent="aeJqdDFBX5K6zPL4mIxV-112">
          <mxGeometry y="30" width="78.1500244140625" height="40" as="geometry" />
        </mxCell>
        <mxCell id="aeJqdDFBX5K6zPL4mIxV-114" value="ID" style="shape=partialRectangle;html=1;whiteSpace=wrap;connectable=0;strokeColor=inherit;overflow=hidden;fillColor=none;top=0;left=0;bottom=0;right=0;pointerEvents=1;" vertex="1" parent="aeJqdDFBX5K6zPL4mIxV-113">
          <mxGeometry width="78" height="40" as="geometry">
            <mxRectangle width="78" height="40" as="alternateBounds" />
          </mxGeometry>
        </mxCell>
        <mxCell id="aeJqdDFBX5K6zPL4mIxV-116" value="" style="shape=tableRow;horizontal=0;startSize=0;swimlaneHead=0;swimlaneBody=0;strokeColor=inherit;top=0;left=0;bottom=0;right=0;collapsible=0;dropTarget=0;fillColor=none;points=[[0,0.5],[1,0.5]];portConstraint=eastwest;" vertex="1" parent="aeJqdDFBX5K6zPL4mIxV-112">
          <mxGeometry y="70" width="78.1500244140625" height="40" as="geometry" />
        </mxCell>
        <mxCell id="aeJqdDFBX5K6zPL4mIxV-117" value="LicencePlate" style="shape=partialRectangle;html=1;whiteSpace=wrap;connectable=0;strokeColor=inherit;overflow=hidden;fillColor=none;top=0;left=0;bottom=0;right=0;pointerEvents=1;" vertex="1" parent="aeJqdDFBX5K6zPL4mIxV-116">
          <mxGeometry width="78" height="40" as="geometry">
            <mxRectangle width="78" height="40" as="alternateBounds" />
          </mxGeometry>
        </mxCell>
        <mxCell id="aeJqdDFBX5K6zPL4mIxV-119" value="" style="shape=tableRow;horizontal=0;startSize=0;swimlaneHead=0;swimlaneBody=0;strokeColor=inherit;top=0;left=0;bottom=0;right=0;collapsible=0;dropTarget=0;fillColor=none;points=[[0,0.5],[1,0.5]];portConstraint=eastwest;" vertex="1" parent="aeJqdDFBX5K6zPL4mIxV-112">
          <mxGeometry y="110" width="78.1500244140625" height="40" as="geometry" />
        </mxCell>
        <mxCell id="aeJqdDFBX5K6zPL4mIxV-120" value="Model" style="shape=partialRectangle;html=1;whiteSpace=wrap;connectable=0;strokeColor=inherit;overflow=hidden;fillColor=none;top=0;left=0;bottom=0;right=0;pointerEvents=1;" vertex="1" parent="aeJqdDFBX5K6zPL4mIxV-119">
          <mxGeometry width="78" height="40" as="geometry">
            <mxRectangle width="78" height="40" as="alternateBounds" />
          </mxGeometry>
        </mxCell>
        <mxCell id="aeJqdDFBX5K6zPL4mIxV-122" value="" style="shape=tableRow;horizontal=0;startSize=0;swimlaneHead=0;swimlaneBody=0;strokeColor=inherit;top=0;left=0;bottom=0;right=0;collapsible=0;dropTarget=0;fillColor=none;points=[[0,0.5],[1,0.5]];portConstraint=eastwest;" vertex="1" parent="aeJqdDFBX5K6zPL4mIxV-112">
          <mxGeometry y="150" width="78.1500244140625" height="40" as="geometry" />
        </mxCell>
        <mxCell id="aeJqdDFBX5K6zPL4mIxV-123" value="Capacity" style="shape=partialRectangle;html=1;whiteSpace=wrap;connectable=0;strokeColor=inherit;overflow=hidden;fillColor=none;top=0;left=0;bottom=0;right=0;pointerEvents=1;" vertex="1" parent="aeJqdDFBX5K6zPL4mIxV-122">
          <mxGeometry width="78" height="40" as="geometry">
            <mxRectangle width="78" height="40" as="alternateBounds" />
          </mxGeometry>
        </mxCell>
        <mxCell id="aeJqdDFBX5K6zPL4mIxV-125" value="" style="shape=tableRow;horizontal=0;startSize=0;swimlaneHead=0;swimlaneBody=0;strokeColor=inherit;top=0;left=0;bottom=0;right=0;collapsible=0;dropTarget=0;fillColor=none;points=[[0,0.5],[1,0.5]];portConstraint=eastwest;" vertex="1" parent="aeJqdDFBX5K6zPL4mIxV-112">
          <mxGeometry y="190" width="78.1500244140625" height="40" as="geometry" />
        </mxCell>
        <mxCell id="aeJqdDFBX5K6zPL4mIxV-126" value="" style="shape=partialRectangle;html=1;whiteSpace=wrap;connectable=0;strokeColor=inherit;overflow=hidden;fillColor=none;top=0;left=0;bottom=0;right=0;pointerEvents=1;" vertex="1" parent="aeJqdDFBX5K6zPL4mIxV-125">
          <mxGeometry width="78" height="40" as="geometry">
            <mxRectangle width="78" height="40" as="alternateBounds" />
          </mxGeometry>
        </mxCell>
        <mxCell id="aeJqdDFBX5K6zPL4mIxV-128" value="User" style="shape=table;startSize=30;container=1;collapsible=0;childLayout=tableLayout;" vertex="1" parent="1">
          <mxGeometry x="818" y="136" width="68" height="190" as="geometry" />
        </mxCell>
        <mxCell id="aeJqdDFBX5K6zPL4mIxV-129" value="" style="shape=tableRow;horizontal=0;startSize=0;swimlaneHead=0;swimlaneBody=0;strokeColor=inherit;top=0;left=0;bottom=0;right=0;collapsible=0;dropTarget=0;fillColor=none;points=[[0,0.5],[1,0.5]];portConstraint=eastwest;" vertex="1" parent="aeJqdDFBX5K6zPL4mIxV-128">
          <mxGeometry y="30" width="68" height="40" as="geometry" />
        </mxCell>
        <mxCell id="aeJqdDFBX5K6zPL4mIxV-130" value="ID" style="shape=partialRectangle;html=1;whiteSpace=wrap;connectable=0;strokeColor=inherit;overflow=hidden;fillColor=none;top=0;left=0;bottom=0;right=0;pointerEvents=1;" vertex="1" parent="aeJqdDFBX5K6zPL4mIxV-129">
          <mxGeometry width="68" height="40" as="geometry">
            <mxRectangle width="68" height="40" as="alternateBounds" />
          </mxGeometry>
        </mxCell>
        <mxCell id="aeJqdDFBX5K6zPL4mIxV-132" value="" style="shape=tableRow;horizontal=0;startSize=0;swimlaneHead=0;swimlaneBody=0;strokeColor=inherit;top=0;left=0;bottom=0;right=0;collapsible=0;dropTarget=0;fillColor=none;points=[[0,0.5],[1,0.5]];portConstraint=eastwest;" vertex="1" parent="aeJqdDFBX5K6zPL4mIxV-128">
          <mxGeometry y="70" width="68" height="40" as="geometry" />
        </mxCell>
        <mxCell id="aeJqdDFBX5K6zPL4mIxV-133" value="UserName" style="shape=partialRectangle;html=1;whiteSpace=wrap;connectable=0;strokeColor=inherit;overflow=hidden;fillColor=none;top=0;left=0;bottom=0;right=0;pointerEvents=1;" vertex="1" parent="aeJqdDFBX5K6zPL4mIxV-132">
          <mxGeometry width="68" height="40" as="geometry">
            <mxRectangle width="68" height="40" as="alternateBounds" />
          </mxGeometry>
        </mxCell>
        <mxCell id="aeJqdDFBX5K6zPL4mIxV-135" value="" style="shape=tableRow;horizontal=0;startSize=0;swimlaneHead=0;swimlaneBody=0;strokeColor=inherit;top=0;left=0;bottom=0;right=0;collapsible=0;dropTarget=0;fillColor=none;points=[[0,0.5],[1,0.5]];portConstraint=eastwest;" vertex="1" parent="aeJqdDFBX5K6zPL4mIxV-128">
          <mxGeometry y="110" width="68" height="40" as="geometry" />
        </mxCell>
        <mxCell id="aeJqdDFBX5K6zPL4mIxV-136" value="Email" style="shape=partialRectangle;html=1;whiteSpace=wrap;connectable=0;strokeColor=inherit;overflow=hidden;fillColor=none;top=0;left=0;bottom=0;right=0;pointerEvents=1;" vertex="1" parent="aeJqdDFBX5K6zPL4mIxV-135">
          <mxGeometry width="68" height="40" as="geometry">
            <mxRectangle width="68" height="40" as="alternateBounds" />
          </mxGeometry>
        </mxCell>
        <mxCell id="aeJqdDFBX5K6zPL4mIxV-138" value="" style="shape=tableRow;horizontal=0;startSize=0;swimlaneHead=0;swimlaneBody=0;strokeColor=inherit;top=0;left=0;bottom=0;right=0;collapsible=0;dropTarget=0;fillColor=none;points=[[0,0.5],[1,0.5]];portConstraint=eastwest;" vertex="1" parent="aeJqdDFBX5K6zPL4mIxV-128">
          <mxGeometry y="150" width="68" height="40" as="geometry" />
        </mxCell>
        <mxCell id="aeJqdDFBX5K6zPL4mIxV-139" value="FullName" style="shape=partialRectangle;html=1;whiteSpace=wrap;connectable=0;strokeColor=inherit;overflow=hidden;fillColor=none;top=0;left=0;bottom=0;right=0;pointerEvents=1;" vertex="1" parent="aeJqdDFBX5K6zPL4mIxV-138">
          <mxGeometry width="68" height="40" as="geometry">
            <mxRectangle width="68" height="40" as="alternateBounds" />
          </mxGeometry>
        </mxCell>
        <mxCell id="aeJqdDFBX5K6zPL4mIxV-142" value="TourAttraction" style="shape=table;startSize=30;container=1;collapsible=0;childLayout=tableLayout;" vertex="1" parent="1">
          <mxGeometry x="559" y="362" width="92.10015869140625" height="230" as="geometry" />
        </mxCell>
        <mxCell id="aeJqdDFBX5K6zPL4mIxV-143" value="" style="shape=tableRow;horizontal=0;startSize=0;swimlaneHead=0;swimlaneBody=0;strokeColor=inherit;top=0;left=0;bottom=0;right=0;collapsible=0;dropTarget=0;fillColor=none;points=[[0,0.5],[1,0.5]];portConstraint=eastwest;" vertex="1" parent="aeJqdDFBX5K6zPL4mIxV-142">
          <mxGeometry y="30" width="92.10015869140625" height="40" as="geometry" />
        </mxCell>
        <mxCell id="aeJqdDFBX5K6zPL4mIxV-144" value="TourID(FK)" style="shape=partialRectangle;html=1;whiteSpace=wrap;connectable=0;strokeColor=inherit;overflow=hidden;fillColor=none;top=0;left=0;bottom=0;right=0;pointerEvents=1;" vertex="1" parent="aeJqdDFBX5K6zPL4mIxV-143">
          <mxGeometry width="92" height="40" as="geometry">
            <mxRectangle width="92" height="40" as="alternateBounds" />
          </mxGeometry>
        </mxCell>
        <mxCell id="aeJqdDFBX5K6zPL4mIxV-146" value="" style="shape=tableRow;horizontal=0;startSize=0;swimlaneHead=0;swimlaneBody=0;strokeColor=inherit;top=0;left=0;bottom=0;right=0;collapsible=0;dropTarget=0;fillColor=none;points=[[0,0.5],[1,0.5]];portConstraint=eastwest;" vertex="1" parent="aeJqdDFBX5K6zPL4mIxV-142">
          <mxGeometry y="70" width="92.10015869140625" height="40" as="geometry" />
        </mxCell>
        <mxCell id="aeJqdDFBX5K6zPL4mIxV-147" value="AttractionID(FK)" style="shape=partialRectangle;html=1;whiteSpace=wrap;connectable=0;strokeColor=inherit;overflow=hidden;fillColor=none;top=0;left=0;bottom=0;right=0;pointerEvents=1;" vertex="1" parent="aeJqdDFBX5K6zPL4mIxV-146">
          <mxGeometry width="92" height="40" as="geometry">
            <mxRectangle width="92" height="40" as="alternateBounds" />
          </mxGeometry>
        </mxCell>
        <mxCell id="aeJqdDFBX5K6zPL4mIxV-149" value="" style="shape=tableRow;horizontal=0;startSize=0;swimlaneHead=0;swimlaneBody=0;strokeColor=inherit;top=0;left=0;bottom=0;right=0;collapsible=0;dropTarget=0;fillColor=none;points=[[0,0.5],[1,0.5]];portConstraint=eastwest;" vertex="1" parent="aeJqdDFBX5K6zPL4mIxV-142">
          <mxGeometry y="110" width="92.10015869140625" height="40" as="geometry" />
        </mxCell>
        <mxCell id="aeJqdDFBX5K6zPL4mIxV-150" value="VisitOrder" style="shape=partialRectangle;html=1;whiteSpace=wrap;connectable=0;strokeColor=inherit;overflow=hidden;fillColor=none;top=0;left=0;bottom=0;right=0;pointerEvents=1;" vertex="1" parent="aeJqdDFBX5K6zPL4mIxV-149">
          <mxGeometry width="92" height="40" as="geometry">
            <mxRectangle width="92" height="40" as="alternateBounds" />
          </mxGeometry>
        </mxCell>
        <mxCell id="aeJqdDFBX5K6zPL4mIxV-152" value="" style="shape=tableRow;horizontal=0;startSize=0;swimlaneHead=0;swimlaneBody=0;strokeColor=inherit;top=0;left=0;bottom=0;right=0;collapsible=0;dropTarget=0;fillColor=none;points=[[0,0.5],[1,0.5]];portConstraint=eastwest;" vertex="1" parent="aeJqdDFBX5K6zPL4mIxV-142">
          <mxGeometry y="150" width="92.10015869140625" height="40" as="geometry" />
        </mxCell>
        <mxCell id="aeJqdDFBX5K6zPL4mIxV-153" value="" style="shape=partialRectangle;html=1;whiteSpace=wrap;connectable=0;strokeColor=inherit;overflow=hidden;fillColor=none;top=0;left=0;bottom=0;right=0;pointerEvents=1;" vertex="1" parent="aeJqdDFBX5K6zPL4mIxV-152">
          <mxGeometry width="92" height="40" as="geometry">
            <mxRectangle width="92" height="40" as="alternateBounds" />
          </mxGeometry>
        </mxCell>
        <mxCell id="aeJqdDFBX5K6zPL4mIxV-155" value="" style="shape=tableRow;horizontal=0;startSize=0;swimlaneHead=0;swimlaneBody=0;strokeColor=inherit;top=0;left=0;bottom=0;right=0;collapsible=0;dropTarget=0;fillColor=none;points=[[0,0.5],[1,0.5]];portConstraint=eastwest;" vertex="1" parent="aeJqdDFBX5K6zPL4mIxV-142">
          <mxGeometry y="190" width="92.10015869140625" height="40" as="geometry" />
        </mxCell>
        <mxCell id="aeJqdDFBX5K6zPL4mIxV-156" value="" style="shape=partialRectangle;html=1;whiteSpace=wrap;connectable=0;strokeColor=inherit;overflow=hidden;fillColor=none;top=0;left=0;bottom=0;right=0;pointerEvents=1;" vertex="1" parent="aeJqdDFBX5K6zPL4mIxV-155">
          <mxGeometry width="92" height="40" as="geometry">
            <mxRectangle width="92" height="40" as="alternateBounds" />
          </mxGeometry>
        </mxCell>
        <mxCell id="aeJqdDFBX5K6zPL4mIxV-158" style="edgeStyle=orthogonalEdgeStyle;rounded=0;orthogonalLoop=1;jettySize=auto;html=1;entryX=0;entryY=0.5;entryDx=0;entryDy=0;" edge="1" parent="1" source="aeJqdDFBX5K6zPL4mIxV-113" target="aeJqdDFBX5K6zPL4mIxV-17">
          <mxGeometry relative="1" as="geometry" />
        </mxCell>
        <mxCell id="aeJqdDFBX5K6zPL4mIxV-159" style="edgeStyle=orthogonalEdgeStyle;rounded=0;orthogonalLoop=1;jettySize=auto;html=1;exitX=1;exitY=0.5;exitDx=0;exitDy=0;entryX=0;entryY=0.5;entryDx=0;entryDy=0;" edge="1" parent="1" source="aeJqdDFBX5K6zPL4mIxV-2" target="aeJqdDFBX5K6zPL4mIxV-143">
          <mxGeometry relative="1" as="geometry" />
        </mxCell>
        <mxCell id="aeJqdDFBX5K6zPL4mIxV-163" style="edgeStyle=orthogonalEdgeStyle;rounded=0;orthogonalLoop=1;jettySize=auto;html=1;entryX=1;entryY=0.5;entryDx=0;entryDy=0;" edge="1" parent="1" source="aeJqdDFBX5K6zPL4mIxV-65" target="aeJqdDFBX5K6zPL4mIxV-90">
          <mxGeometry relative="1" as="geometry" />
        </mxCell>
        <mxCell id="aeJqdDFBX5K6zPL4mIxV-164" style="edgeStyle=orthogonalEdgeStyle;rounded=0;orthogonalLoop=1;jettySize=auto;html=1;entryX=1;entryY=0.5;entryDx=0;entryDy=0;" edge="1" parent="1" source="aeJqdDFBX5K6zPL4mIxV-97" target="aeJqdDFBX5K6zPL4mIxV-146">
          <mxGeometry relative="1" as="geometry" />
        </mxCell>
        <mxCell id="aeJqdDFBX5K6zPL4mIxV-168" style="edgeStyle=orthogonalEdgeStyle;rounded=0;orthogonalLoop=1;jettySize=auto;html=1;exitX=0;exitY=0.5;exitDx=0;exitDy=0;entryX=1;entryY=0.5;entryDx=0;entryDy=0;" edge="1" parent="1" source="aeJqdDFBX5K6zPL4mIxV-84" target="aeJqdDFBX5K6zPL4mIxV-106">
          <mxGeometry relative="1" as="geometry" />
        </mxCell>
        <mxCell id="aeJqdDFBX5K6zPL4mIxV-169" style="edgeStyle=orthogonalEdgeStyle;rounded=0;orthogonalLoop=1;jettySize=auto;html=1;exitX=1;exitY=0.5;exitDx=0;exitDy=0;entryX=0;entryY=0.5;entryDx=0;entryDy=0;" edge="1" parent="1" source="aeJqdDFBX5K6zPL4mIxV-27" target="aeJqdDFBX5K6zPL4mIxV-46">
          <mxGeometry relative="1" as="geometry" />
        </mxCell>
        <mxCell id="aeJqdDFBX5K6zPL4mIxV-172" style="edgeStyle=orthogonalEdgeStyle;rounded=0;orthogonalLoop=1;jettySize=auto;html=1;entryX=0;entryY=0.5;entryDx=0;entryDy=0;" edge="1" parent="1" source="aeJqdDFBX5K6zPL4mIxV-30" target="aeJqdDFBX5K6zPL4mIxV-129">
          <mxGeometry relative="1" as="geometry" />
        </mxCell>
        <mxCell id="aeJqdDFBX5K6zPL4mIxV-173" style="edgeStyle=orthogonalEdgeStyle;rounded=0;orthogonalLoop=1;jettySize=auto;html=1;entryX=0;entryY=0.5;entryDx=0;entryDy=0;" edge="1" parent="1">
          <mxGeometry relative="1" as="geometry">
            <mxPoint x="474" y="187" as="sourcePoint" />
            <mxPoint x="562" y="132" as="targetPoint" />
            <Array as="points">
              <mxPoint x="516" y="187" />
              <mxPoint x="516" y="132" />
            </Array>
          </mxGeometry>
        </mxCell>
      </root>
    </mxGraphModel>
  </diagram>
</mxfile>
